<svg xmlns="http://www.w3.org/2000/svg" viewBox="0 0 20 20"><defs><style>.b894890b-1892-49da-9ec9-cdd0aa8de440,.f7e189ff-024b-4feb-b187-4bd5f6d9f548{fill:#707070;}.b894890b-1892-49da-9ec9-cdd0aa8de440{opacity:0;}</style></defs><g id="a52a8f6f-7ea3-461f-907d-2d2e8f949e73" data-name="background"><rect class="b894890b-1892-49da-9ec9-cdd0aa8de440" width="20" height="20"/></g><g id="bc4683bc-57d1-44d0-8001-d55924f9bc76" data-name="Layer 9"><path class="f7e189ff-024b-4feb-b187-4bd5f6d9f548" d="M10.1,19H10l-1.7-.2-1.6-.5a6.9,6.9,0,0,1-3-2,8.3,8.3,0,0,1-2-3,9.8,9.8,0,0,1-.5-1.6A11,11,0,0,1,1,9.9a10.3,10.3,0,0,1,.1-1.7,9.8,9.8,0,0,1,.5-1.6,9.8,9.8,0,0,1,2-3A9.2,9.2,0,0,1,6.4,1.7l.9-.4-.2,1A12.8,12.8,0,0,0,7,4.2a5.8,5.8,0,0,0,.3,1.9,7.5,7.5,0,0,0,.8,1.8A9.5,9.5,0,0,0,9.3,9.5a7.8,7.8,0,0,0,4.2,2.2,6,6,0,0,0,2.3.1,5.4,5.4,0,0,0,2.2-.5l1-.4-.2,1a8.6,8.6,0,0,1-2.4,4.5,9.8,9.8,0,0,1-3,2l-1.6.5ZM5.9,3.2A4.4,4.4,0,0,0,4.4,4.4,5.6,5.6,0,0,0,2.7,7a5.8,5.8,0,0,0-.5,1.4,7.6,7.6,0,0,0-.1,1.5,7.7,7.7,0,0,0,.2,1.5,8.3,8.3,0,0,0,.4,1.5,6.8,6.8,0,0,0,1.8,2.6,6.8,6.8,0,0,0,2.6,1.8l1.5.4,1.5.2h1.5l1.4-.5a5.6,5.6,0,0,0,2.6-1.7,6.8,6.8,0,0,0,1.8-2.9l-1.5.2a7.6,7.6,0,0,1-2.6-.1,8.7,8.7,0,0,1-4.7-2.5A8.4,8.4,0,0,1,7.1,8.5a13.1,13.1,0,0,1-.8-2.1,5.2,5.2,0,0,1-.4-2.1Z" transform="translate(0 0)"/></g></svg>