<svg xmlns="http://www.w3.org/2000/svg" viewBox="0 0 20 20"><defs><style>.b6ada158-591e-4af8-b394-d54250ff9f8b,.e3a8ae99-ab51-4cfd-9e03-5bb399921f18{fill:#707070;}.e3a8ae99-ab51-4cfd-9e03-5bb399921f18{opacity:0;}</style></defs><g id="b5add508-94be-419b-b91a-66d7ff5e80c0" data-name="background"><rect class="e3a8ae99-ab51-4cfd-9e03-5bb399921f18" width="20" height="20"/></g><g id="e9b83168-6d8d-4f79-a9aa-e59da17b19ca" data-name="Layer 10"><path class="b6ada158-591e-4af8-b394-d54250ff9f8b" d="M.5,7v7.9a2.6,2.6,0,0,0,2.6,2.6H16.9a2.6,2.6,0,0,0,2.6-2.6V5.1a2.6,2.6,0,0,0-2.6-2.6H3.1A2.6,2.6,0,0,0,.5,5.1V7ZM3.1,3.5H16.9a1.6,1.6,0,0,1,1.6,1.6V6.5l-8.2,6.4L1.5,6.5V5.1A1.6,1.6,0,0,1,3.1,3.5ZM18.5,14.9a1.6,1.6,0,0,1-1.6,1.6H3.1a1.6,1.6,0,0,1-1.6-1.6V7.8l8.8,6.3,8.2-6.3Z" transform="translate(0 0)"/></g></svg>