<svg xmlns="http://www.w3.org/2000/svg" viewBox="0 0 20 20"><defs><style>.aee25848-1109-475c-876f-94412ce4a02c,.ba4fbd4e-96af-4a26-8c34-7c948f5e2ea7{fill:#707070;}.aee25848-1109-475c-876f-94412ce4a02c{opacity:0;}</style></defs><g id="b7153fe4-f8e9-4a5d-85d0-913e27285b0e" data-name="background"><rect class="aee25848-1109-475c-876f-94412ce4a02c" width="20" height="20"/></g><g id="e083b5a3-c12d-4ff3-a3d9-83f7f06e5c8d" data-name="Layer 8"><g id="fbd189fa-a694-4336-8752-835503d7f645" data-name="Group 7259"><g id="b7c99d94-d812-4cc3-b058-ec36af3ee077" data-name="Ellipse 32"><path class="ba4fbd4e-96af-4a26-8c34-7c948f5e2ea7" d="M10.2,14.3a4.2,4.2,0,1,1,4.2-4.2A4.2,4.2,0,0,1,10.2,14.3Zm0-7.4a3.2,3.2,0,1,0,3.2,3.2A3.2,3.2,0,0,0,10.2,6.9Z" transform="translate(0 0)"/></g><g id="ac94ba0e-69db-46aa-a59a-b3f91156bbba" data-name="Group 7255"><g id="b035ac50-4066-43e6-9c58-201299e8e692" data-name="Path 3030"><rect class="ba4fbd4e-96af-4a26-8c34-7c948f5e2ea7" x="9.5" y="0.6" width="1" height="3.2"/></g><g id="f478614d-437e-4a82-99cf-57bfd1f8b89e" data-name="Path 3031"><rect class="ba4fbd4e-96af-4a26-8c34-7c948f5e2ea7" x="9.5" y="16.1" width="1" height="3.21"/></g></g><g id="f3943f1e-8550-4e40-b5ff-47b6790cc7ba" data-name="Group 7256"><g id="ba4ea385-a310-4e29-8e29-c8684416f520" data-name="Path 3030-2"><rect class="ba4fbd4e-96af-4a26-8c34-7c948f5e2ea7" x="14.1" y="4.2" width="3.2" height="1" transform="translate(1 11.9) rotate(-43)"/></g><g id="b122f287-e7c5-4240-85d7-f434c619cf0b" data-name="Path 3031-2"><rect class="ba4fbd4e-96af-4a26-8c34-7c948f5e2ea7" x="2.7" y="14.8" width="3.2" height="1" transform="translate(-9.2 7.1) rotate(-43)"/></g></g><g id="feefb139-3f9c-4969-b08c-35b0238709dd" data-name="Group 7257"><g id="e13dc142-40dc-4e75-baa3-07b5d3bf88b3" data-name="Path 3030-3"><rect class="ba4fbd4e-96af-4a26-8c34-7c948f5e2ea7" x="16.2" y="9.5" width="3.2" height="1"/></g><g id="be3b9592-57cc-4848-b55e-8589add7f05c" data-name="Path 3031-3"><rect class="ba4fbd4e-96af-4a26-8c34-7c948f5e2ea7" x="0.6" y="9.5" width="3.2" height="1"/></g></g><g id="afcb3f52-062e-425a-a8be-effef6918a59" data-name="Group 7258"><g id="b99a614c-c3cb-42d8-98a6-5b974a03fd6e" data-name="Path 3030-4"><rect class="ba4fbd4e-96af-4a26-8c34-7c948f5e2ea7" x="15" y="13.8" width="1" height="3.2" transform="translate(-6.4 15.5) rotate(-45)"/></g><g id="a0183ae0-2993-4b18-84b5-0c5032a2ab00" data-name="Path 3031-4"><rect class="ba4fbd4e-96af-4a26-8c34-7c948f5e2ea7" x="4" y="2.9" width="1" height="3.2" transform="translate(-1.8 4.5) rotate(-45)"/></g></g></g></g></svg>