<svg xmlns="http://www.w3.org/2000/svg" viewBox="0 0 20 20"><defs><style>.b11ffcea-53ee-4948-8561-c11f817dadf3,.bc3341cb-31a8-48b8-9822-1c4375c9a3e6{fill:#707070;}.b11ffcea-53ee-4948-8561-c11f817dadf3{opacity:0;}</style></defs><g id="f88ef75d-87c8-4007-ac94-fd4d684fcca4" data-name="background"><rect class="b11ffcea-53ee-4948-8561-c11f817dadf3" width="20" height="20"/></g><g id="b8291ffb-9c68-46cb-ad21-51b2c829374a" data-name="Layer 12"><path id="b7b10b14-e27f-4996-8a39-ba83573cb5ea" data-name="Search" class="bc3341cb-31a8-48b8-9822-1c4375c9a3e6" d="M19,18.1l-4.4-4.4a7.8,7.8,0,0,0-.9-10.9,7.7,7.7,0,0,0-10,11.8,7.8,7.8,0,0,0,10,0L18.1,19Zm-10.3-3A6.4,6.4,0,0,1,2.3,8.7,6.4,6.4,0,0,1,8.7,2.3a6.3,6.3,0,0,1,6.4,6.4h0A6.4,6.4,0,0,1,8.7,15.1Z" transform="translate(0 0)"/></g></svg>