<svg xmlns="http://www.w3.org/2000/svg" viewBox="0 0 20 20"><defs><style>.a9b58f14-3975-4f43-aa1b-a6304d341fbc,.bf539776-5e59-4522-9b8c-3d18d17fd913{fill:#707070;}.bf539776-5e59-4522-9b8c-3d18d17fd913{opacity:0;}</style></defs><g id="a75ef1b0-b1d3-4f6b-8d5a-cb450aa11236" data-name="background"><rect class="bf539776-5e59-4522-9b8c-3d18d17fd913" width="20" height="20"/></g><g id="f98e1ab0-c2b8-4fd8-b798-dc8bc4a541ae" data-name="Layer 7"><g id="b140bdc9-c53b-4d77-a018-820509b86af7" data-name="Group 7371"><g id="b25b450b-5012-47f4-8cc9-4839b2e1cfdc" data-name="Path 3041"><path class="a9b58f14-3975-4f43-aa1b-a6304d341fbc" d="M15.3,19.3H3.2a2.5,2.5,0,0,1-2.4-2V4.7a2.1,2.1,0,0,1,1.9-2H9.3v1H2.7a1,1,0,0,0-.9,1.1V17.2a1.4,1.4,0,0,0,1.4,1.1H15.1a1.8,1.8,0,0,0,1.3-1.5h0V10.1h1V17h0a3.1,3.1,0,0,1-2,2.3Z" transform="translate(0 0)"/></g><g id="b5f2e18b-8454-4262-be80-84f477102e10" data-name="Path 3042"><path class="a9b58f14-3975-4f43-aa1b-a6304d341fbc" d="M5.1,14.6,6.6,9.8,15.8.7H16a2.6,2.6,0,0,1,2,.5,3,3,0,0,0,.8.8h.1a1.7,1.7,0,0,1-.1,2.1h0l-8.9,9h0Zm2.4-4.2-.9,2.7,2.7-.7c1-1,8.2-8.4,8.8-8.9h0c.3-.2,0-.6,0-.8l-.9-.8a1.3,1.3,0,0,0-.9-.2Z" transform="translate(0 0)"/></g></g></g></svg>