<svg xmlns="http://www.w3.org/2000/svg" viewBox="0 0 20 20"><defs><style>.be28b3f6-8b12-4b02-b936-87373d7192b3,.fe69a3bd-1884-4d62-b76c-18d67d5cf4b2{fill:#707070;}.be28b3f6-8b12-4b02-b936-87373d7192b3{opacity:0;}</style></defs><g id="a287f07e-806c-4639-802c-04b9a7958c3e" data-name="background"><rect class="be28b3f6-8b12-4b02-b936-87373d7192b3" width="20" height="20"/></g><g id="a77304ec-3200-4d89-89df-13e2fc15c8f7" data-name="Layer 7"><g id="a55ecc39-13a5-4bf4-84d4-0c5f3f0f7b86" data-name="Group 7371"><g id="e6de0369-2259-46d5-be43-3a4a2592ef2b" data-name="Path 3041"><path class="fe69a3bd-1884-4d62-b76c-18d67d5cf4b2" d="M15.3,19.3H3.2a2.5,2.5,0,0,1-2.4-2V4.7a2.1,2.1,0,0,1,1.9-2H9.3v1H2.7a1,1,0,0,0-.9,1.1V17.2a1.4,1.4,0,0,0,1.4,1.1H15.1a1.8,1.8,0,0,0,1.3-1.5h0V10.1h1V17h0a3.1,3.1,0,0,1-2,2.3Z" transform="translate(0 0)"/></g><g id="b93ca0da-b500-47a4-baa6-cdf2ef9eecca" data-name="Path 3042"><path class="fe69a3bd-1884-4d62-b76c-18d67d5cf4b2" d="M5.1,14.6,6.6,9.8,15.8.7H16a2.6,2.6,0,0,1,2,.5,3,3,0,0,0,.8.8h.1a1.7,1.7,0,0,1-.1,2.1h0l-8.9,9h0Zm2.4-4.2-.9,2.7,2.7-.7c1-1,8.2-8.4,8.8-8.9h0c.3-.2,0-.6,0-.8l-.9-.8a1.3,1.3,0,0,0-.9-.2Z" transform="translate(0 0)"/></g></g></g></svg>