<svg xmlns="http://www.w3.org/2000/svg" viewBox="0 0 20 20"><defs><style>.bcd1a08b-c9a5-42ca-973f-594c90ad7a82,.f7217d32-7ee3-4031-945f-4928c937a533{fill:#707070;}.bcd1a08b-c9a5-42ca-973f-594c90ad7a82{opacity:0;}</style></defs><g id="a5833d0a-895d-41b6-80aa-c028880bbacb" data-name="background"><rect class="bcd1a08b-c9a5-42ca-973f-594c90ad7a82" width="20" height="20"/></g><g id="e2f9d22e-dfee-4367-a7fd-0c8a0297944a" data-name="Layer 4"><g id="a7fc1ae4-177f-4731-98e5-5bba9c5447ae" data-name="Group 7283"><g id="f59016a9-7a62-4951-b8d1-7c43486f30eb" data-name="Path 3055"><path class="f7217d32-7ee3-4031-945f-4928c937a533" d="M3.3,15h-1a2.1,2.1,0,0,1-1.8-2c0-.3-.1-8,0-9.5A2.5,2.5,0,0,1,2.8,1.3c.6,0,13-.1,14.5,0a2.4,2.4,0,0,1,2.2,2.1c0,.1.1,6.3,0,8.7a2.9,2.9,0,0,1-.9,2.3,2.3,2.3,0,0,1-1.4.5H15.9v-1h1.4a1.1,1.1,0,0,0,.7-.3,2.1,2.1,0,0,0,.5-1.5c.1-2.4,0-8.6,0-8.6a1.3,1.3,0,0,0-1.3-1.2H2.9s-1.3.2-1.4,1.2,0,9.3,0,9.4a1.1,1.1,0,0,0,.9,1h.1a2.2,2.2,0,0,0,1.6,0l.3.9A2,2,0,0,1,3.3,15Z" transform="translate(0 0)"/></g><g id="b9411096-8a63-4892-beb6-a395685ce8ce" data-name="Path 3056"><path class="f7217d32-7ee3-4031-945f-4928c937a533" d="M15.6,18.4H4.4l5.4-7Zm-9.2-1h7.1L9.8,13Z" transform="translate(0 0)"/></g></g></g></svg>