<svg xmlns="http://www.w3.org/2000/svg" viewBox="0 0 20 20"><defs><style>.ab8339b4-57bc-4cb9-8a95-26dca5a43d5d,.b4dc6d3f-3c45-44a8-9f26-982b63cbb3bd{fill:#707070;}.b4dc6d3f-3c45-44a8-9f26-982b63cbb3bd{opacity:0;}.a35a691b-71c4-47ad-a274-740b3f0253d1{fill:#fff;}</style></defs><g id="bbc761bc-5dc4-431f-9486-c265d26ddfd3" data-name="background"><rect class="b4dc6d3f-3c45-44a8-9f26-982b63cbb3bd" width="20" height="20"/></g><g id="ebda7edf-dca1-49a9-b675-2aa3bdfa985f" data-name="Layer 6"><g id="f5deb351-001f-4882-94b3-322aaf2ca165" data-name="Group 7621"><g id="f90e4e6b-7072-4f77-b70c-9425e02aa686" data-name="Rectangle 2659"><rect class="a35a691b-71c4-47ad-a274-740b3f0253d1" x="0.2" y="2.2" width="19.6" height="15.64" rx="2"/><path class="ab8339b4-57bc-4cb9-8a95-26dca5a43d5d" d="M17.8,17.8H2.2a1.9,1.9,0,0,1-2-1.9V4.1a2,2,0,0,1,2-1.9H17.8a2,2,0,0,1,2,1.9V15.9A1.9,1.9,0,0,1,17.8,17.8ZM2.2,3.2a.9.9,0,0,0-1,.9V15.9a.9.9,0,0,0,1,.9H17.8a.9.9,0,0,0,1-.9V4.1a.9.9,0,0,0-1-.9Z" transform="translate(0 0)"/></g><g id="b43ff8f2-3de0-46f2-9de3-b78b9552d025" data-name="Path 3077"><rect class="ab8339b4-57bc-4cb9-8a95-26dca5a43d5d" x="0.6" y="14.1" width="18.6" height="1"/></g><g id="b3417f2d-de12-4695-9e42-5f04d668d9fa" data-name="Group 7312"><g id="be2c75f5-4c28-438d-afba-d2a885c5bcc4" data-name="Path 3078"><rect class="ab8339b4-57bc-4cb9-8a95-26dca5a43d5d" x="6.2" y="11.6" width="4.7" height="1" transform="translate(-4.5 19.2) rotate(-82.9)"/></g><g id="e167961d-4ff9-460f-bd4e-a75c2a8ab871" data-name="Path 3079"><rect class="ab8339b4-57bc-4cb9-8a95-26dca5a43d5d" x="10.1" y="10" width="1" height="4.51" transform="translate(-1 1) rotate(-5.1)"/></g><g id="b031228f-e046-49e0-b2a3-6b29bd87d8e0" data-name="Path 3080"><path class="ab8339b4-57bc-4cb9-8a95-26dca5a43d5d" d="M9.7,10.7a2,2,0,0,1-1.5-.6l-.5-.7h0a3.3,3.3,0,0,1,.6-2.5l.8-1.4.4-.9,1.6,2.7a2.2,2.2,0,0,1,0,2.9A2,2,0,0,1,9.7,10.7Zm-1-1.6.2.3a1.1,1.1,0,0,0,1.5,0c.6-.6-.1-1.7-.1-1.7L9.6,6.6l-.4.7C8.6,8.4,8.6,8.5,8.7,9.1Z" transform="translate(0 0)"/></g></g><g id="a6b1ee43-b152-4bfe-bb11-a73ebe95e22f" data-name="Group 7314"><g id="aff2e65c-7e77-4bd2-bca7-1833cb73863e" data-name="Path 3082"><rect class="ab8339b4-57bc-4cb9-8a95-26dca5a43d5d" x="2.8" y="8.6" width="3" height="1"/></g><g id="ac167e89-4329-43a0-9674-b5fa94e2f130" data-name="Group 7313"><g id="bbfd0bd2-72f9-426e-b0fc-f77247378a24" data-name="Path 3081"><polygon class="ab8339b4-57bc-4cb9-8a95-26dca5a43d5d" points="6.3 14.6 5.3 14.6 5.3 9.1 4.3 7.3 3.3 9.3 3.3 14.6 2.3 14.6 2.4 9 4.3 5.1 6.3 8.9 6.3 14.6"/></g><g id="e11a8681-a2ab-4562-84ac-f9ff24363259" data-name="Path 3083"><rect class="ab8339b4-57bc-4cb9-8a95-26dca5a43d5d" x="3.8" y="8.9" width="1" height="5.75"/></g></g></g><g id="b71f9782-eab2-44a8-83fe-e0610f56f0da" data-name="Group 7315"><g id="aa849a28-5888-42ab-a19b-26a25cd47f52" data-name="Path 3084"><polygon class="ab8339b4-57bc-4cb9-8a95-26dca5a43d5d" points="18 14.6 17 14.6 17 6 14.7 6 14.7 14.6 13.7 14.6 13.7 5 18 5 18 14.6"/></g><g id="b566c8ba-90d4-463d-af24-89a4466c2d0a" data-name="Path 3085"><rect class="ab8339b4-57bc-4cb9-8a95-26dca5a43d5d" x="15.9" y="12.7" width="1.6" height="1"/></g><g id="a9d0606a-6b83-41bc-b6d0-48946b89e53f" data-name="Path 3086"><rect class="ab8339b4-57bc-4cb9-8a95-26dca5a43d5d" x="15.9" y="6.8" width="1.6" height="1"/></g><g id="f4d187f7-988e-4c17-aeb3-a2577a8df322" data-name="Path 3087"><rect class="ab8339b4-57bc-4cb9-8a95-26dca5a43d5d" x="15.9" y="9.8" width="1.6" height="1"/></g></g></g></g></svg>