<svg xmlns="http://www.w3.org/2000/svg" viewBox="0 0 20 20"><defs><style>.e361ce5e-f038-483e-97de-c9127e68e060,.e78ea542-1f75-43ea-b0fa-9557eb37d6ac{fill:#707070;}.e78ea542-1f75-43ea-b0fa-9557eb37d6ac{opacity:0;}.b3626e09-54ae-41f6-bfb1-7ae1ce0c0fb0{fill:#fff;}</style></defs><g id="f48cbdc9-9438-4419-b9d2-414251350959" data-name="background"><rect class="e78ea542-1f75-43ea-b0fa-9557eb37d6ac" width="20" height="20"/></g><g id="e5cf66e8-f68c-4208-8f83-a0e536508adb" data-name="Layer 5"><g id="a4bb811b-bb3c-4bcd-8e4f-3dab781d1b6c" data-name="Group 7620"><path class="b3626e09-54ae-41f6-bfb1-7ae1ce0c0fb0" d="M13.9,15.5H9.6l2.2-4.4Z" transform="translate(0 0)"/><g id="a457cd24-9d5d-43da-8734-f2e29382ff7c" data-name="Path 3041"><path class="e361ce5e-f038-483e-97de-c9127e68e060" d="M16.5,18.8H3.5A2.6,2.6,0,0,1,.9,16.7h0V3a1.7,1.7,0,0,1,.7-1.3A1.6,1.6,0,0,1,3,1.2H5.8v1H3a1.1,1.1,0,0,0-.8.2.9.9,0,0,0-.3.7V16.5a1.6,1.6,0,0,0,1.6,1.3H16.3a1.9,1.9,0,0,0,1.4-1.6V9h1v7.4h0a3.2,3.2,0,0,1-2.1,2.4Z" transform="translate(0 0)"/></g><g id="fd6f7ab0-8f7c-4d13-89d0-7f5a30580004" data-name="Rectangle 2736"><rect class="b3626e09-54ae-41f6-bfb1-7ae1ce0c0fb0" x="8.8" y="3" width="7" height="5"/><path class="e361ce5e-f038-483e-97de-c9127e68e060" d="M15.8,8h-7V3h7Zm-6-1h5V4h-5Z" transform="translate(0 0)"/></g><path class="e361ce5e-f038-483e-97de-c9127e68e060" d="M11.8,12.2,10.4,15h2.7l-1.3-2.8m0-2.2,3,6h-6Z" transform="translate(0 0)"/><g id="b0fc4cd4-b3a5-4a7c-aa75-59fa9c99106d" data-name="Ellipse 61"><circle class="b3626e09-54ae-41f6-bfb1-7ae1ce0c0fb0" cx="5.8" cy="11" r="3"/><path class="e361ce5e-f038-483e-97de-c9127e68e060" d="M5.8,14a3,3,0,0,1-3-3,2.9,2.9,0,0,1,3-3,3,3,0,0,1,3,3A3.1,3.1,0,0,1,5.8,14Zm0-5a1.9,1.9,0,0,0-2,2,1.9,1.9,0,0,0,2,2,2,2,0,1,0,0-4Z" transform="translate(0 0)"/></g></g></g></svg>