<svg xmlns="http://www.w3.org/2000/svg" viewBox="0 0 20 20"><defs><style>.a20e79f8-66d6-47c2-8387-1820af6f9a97,.e94e8dd4-f9ef-47b8-95ae-14b0cb6f5fed{fill:#707070;}.a20e79f8-66d6-47c2-8387-1820af6f9a97{opacity:0;}</style></defs><g id="a62ea943-ae0a-434f-9d17-86b9c2fd31b7" data-name="background"><rect class="a20e79f8-66d6-47c2-8387-1820af6f9a97" width="20" height="20"/></g><g id="a61d09a8-a3a1-4dc7-b36c-6f8a762b24e5" data-name="Layer 4"><g id="b5d83774-e9a5-41f0-bfcf-aead2451486c" data-name="Group 7283"><g id="be4ecb7e-d643-47c1-bac4-01c6491261e8" data-name="Path 3055"><path class="e94e8dd4-f9ef-47b8-95ae-14b0cb6f5fed" d="M3.3,15h-1a2.1,2.1,0,0,1-1.8-2c0-.3-.1-8,0-9.5A2.5,2.5,0,0,1,2.8,1.3c.6,0,13-.1,14.5,0a2.4,2.4,0,0,1,2.2,2.1c0,.1.1,6.3,0,8.7a2.9,2.9,0,0,1-.9,2.3,2.3,2.3,0,0,1-1.4.5H15.9v-1h1.4a1.1,1.1,0,0,0,.7-.3,2.1,2.1,0,0,0,.5-1.5c.1-2.4,0-8.6,0-8.6a1.3,1.3,0,0,0-1.3-1.2H2.9s-1.3.2-1.4,1.2,0,9.3,0,9.4a1.1,1.1,0,0,0,.9,1h.1a2.2,2.2,0,0,0,1.6,0l.3.9A2,2,0,0,1,3.3,15Z" transform="translate(0 0)"/></g><g id="b59baccf-49b5-49a9-a5e2-047366bab6f2" data-name="Path 3056"><path class="e94e8dd4-f9ef-47b8-95ae-14b0cb6f5fed" d="M15.6,18.4H4.4l5.4-7Zm-9.2-1h7.1L9.8,13Z" transform="translate(0 0)"/></g></g></g></svg>