<svg xmlns="http://www.w3.org/2000/svg" viewBox="0 0 21.7 18.2"><defs><style>.a{fill:none;}</style></defs><polygon points="0 4.5 0.7 3.9 10.4 14.5 21 3.9 21.7 4.6 10.4 15.9 0 4.5"/><path class="a" d="M11.8,21.3a8.2,8.2,0,0,1-4.6-1.4,9.3,9.3,0,0,1-4.6-8.8C2.9,7.7,5,4.6,7.7,3.5l1-.3-.3.9a8.3,8.3,0,0,0,2.8,8.4c4.1,3.2,10.3.9,10.3.9l1.3-.5-.7,1.2c-.1.2-3.4,5.8-8.3,7A6.8,6.8,0,0,1,11.8,21.3ZM7.3,4.9a8.3,8.3,0,0,0-3.7,6.3,8,8,0,0,0,4.2,7.9,7.3,7.3,0,0,0,5.7,1c3.3-.8,5.8-3.7,7-5.4-2.2.6-6.6,1.2-9.9-1.5A8.8,8.8,0,0,1,7.3,4.9Z" transform="translate(-1.2 -3.2)"/></svg>