<svg xmlns="http://www.w3.org/2000/svg" viewBox="0 0 20 20"><defs><style>.a21945ef-2ba8-4a0f-9f53-f102d9fc3cbf,.e3f1accb-1e0f-46d0-a162-b68731196139{fill:#707070;}.a21945ef-2ba8-4a0f-9f53-f102d9fc3cbf{opacity:0;}</style></defs><g id="aa3c9238-d8e5-4b96-93c0-4a27e97ff225" data-name="background"><rect class="a21945ef-2ba8-4a0f-9f53-f102d9fc3cbf" width="20" height="20"/></g><g id="afbf9bfe-ec01-445d-ba7a-6956b6a31fef" data-name="Layer 3"><g id="b97cb71d-91df-417b-a422-e4f0f9b1b905" data-name="Group 7562"><g id="ee25a2ad-4319-4f22-94e6-28e428f80c0f" data-name="Path 3043"><path class="e3f1accb-1e0f-46d0-a162-b68731196139" d="M4.1,19.7a2.8,2.8,0,0,1-2.7-2.3V3A2.7,2.7,0,0,1,3.2.3h8.4l6,5.8v.2c0,.4.1,9.3,0,11.1a2.3,2.3,0,0,1-2.2,2.3H4.1ZM3.5,1.3A1.6,1.6,0,0,0,2.4,3V17.3a1.8,1.8,0,0,0,1.9,1.4H15.4a1.2,1.2,0,0,0,1.2-1.3V6.5L11.2,1.3Z" transform="translate(0 0)"/></g><g id="f811c6a4-e9dc-46a8-bf55-3f8d72538e7f" data-name="Path 3044"><polygon class="e3f1accb-1e0f-46d0-a162-b68731196139" points="17.1 7.3 10.6 7.3 10.6 0.9 11.6 0.9 11.6 6.3 17.1 6.3 17.1 7.3"/></g><g id="afd59fa1-9f4b-4b79-9a0e-6d32a1e11d01" data-name="Path 3045"><rect class="e3f1accb-1e0f-46d0-a162-b68731196139" x="5.1" y="6.7" width="3.2" height="1"/></g><g id="b9a56a6f-8165-4da7-b15f-e4d40118892e" data-name="Path 3046"><rect class="e3f1accb-1e0f-46d0-a162-b68731196139" x="5.1" y="10.4" width="8.7" height="1"/></g><g id="b3206fb9-2f88-4f93-8361-e3dcd65d451b" data-name="Path 3047"><rect class="e3f1accb-1e0f-46d0-a162-b68731196139" x="5.1" y="14.2" width="8.7" height="1"/></g></g></g></svg>