<svg xmlns="http://www.w3.org/2000/svg" viewBox="0 0 20 20"><defs><style>.a0bc6a49-2fdd-4529-ab22-70c6519f047b,.a98a8980-5242-4abf-94cf-55666ec2cbbc{fill:#707070;}.a98a8980-5242-4abf-94cf-55666ec2cbbc{opacity:0;}.b2f04814-3cb6-406e-862b-78a210d13cbe{isolation:isolate;}</style></defs><g id="ab124c2a-0f35-4cf7-82ab-63de2dbe164a" data-name="background"><rect class="a98a8980-5242-4abf-94cf-55666ec2cbbc" width="20" height="20"/></g><g id="b35efb64-67be-4013-9945-1c9106420d8b" data-name="Layer 11"><g id="b7288faa-f9c3-4e47-9bc9-d4daa8cc9937" data-name=" " class="b2f04814-3cb6-406e-862b-78a210d13cbe"><g class="b2f04814-3cb6-406e-862b-78a210d13cbe"><path class="a0bc6a49-2fdd-4529-ab22-70c6519f047b" d="M16.8,13.3a1.3,1.3,0,0,1,.3.7,1,1,0,0,1-1,1H3.4l-.3-.4a.8.8,0,0,1-.2-.5,1.3,1.3,0,0,1,.3-.7c.1,0,.1,0,.1-.1l.8-.8.6-1.5A8.8,8.8,0,0,0,5,8.5,4.6,4.6,0,0,1,6.1,5.3,4.8,4.8,0,0,1,9,3.6V2.9a1.1,1.1,0,0,1,.3-.7,1,1,0,0,1,1.4,0,1.1,1.1,0,0,1,.3.7v.7a4,4,0,0,1,2.1.9,5.5,5.5,0,0,1,1.4,1.7,4.6,4.6,0,0,1,.6,2.3,8.8,8.8,0,0,0,.3,2.4,5.7,5.7,0,0,0,.6,1.5l.7.8A.1.1,0,0,0,16.8,13.3Zm-11.7.2h9.8a8.2,8.2,0,0,1-1.4-5h0A3.4,3.4,0,0,0,10,5,3.4,3.4,0,0,0,6.5,8.5h0A8.2,8.2,0,0,1,5.1,13.5Zm6.3,4a1.8,1.8,0,0,1-1.4.6,2.1,2.1,0,0,1-2-2h4A2,2,0,0,1,11.4,17.5Z" transform="translate(0 0)"/></g></g></g></svg>