<svg xmlns="http://www.w3.org/2000/svg" width="227.305" height="147.717" viewBox="0 0 227.305 147.717">
  <g id="Group_8877" data-name="Group 8877" transform="translate(-809.373 -11.412)">
    <g id="Group_7829" data-name="Group 7829" transform="matrix(0.995, 0.105, -0.105, 0.995, 817.914, 74.631)">
      <g id="Group_7827" data-name="Group 7827" transform="translate(0 0)">
        <g id="Group_7826" data-name="Group 7826" transform="translate(0 31.638)">
          <path id="Path_3090" data-name="Path 3090" d="M22.3,49.9s6.457-.059,0-10.008,1.468-12.939,1.468-12.939,4.575-4.843-3.75-9.484-2.6-4.985-2.721-5.766S10.758-2.136,7.848.3s-1.84,10.324,0,16.241S5.025,26.222,3.86,25.982s-8.068.626,0,8.944S6.632,42.893,6.632,47.02,3.86,49.9,3.86,49.9Z" transform="translate(0 0)" fill="#4a66b7"/>
        </g>
        <g id="Group_7825" data-name="Group 7825" transform="translate(9.682 0)">
          <path id="Path_3090-2" data-name="Path 3090" d="M30.824,80.008s8.931-.094,0-16.045,2.035-20.743,2.035-20.743,6.325-7.764-5.187-15.2-3.6-7.992-3.761-9.243S14.876-3.425,10.852.486s-2.545,16.552,0,26.039-3.9,15.513-5.516,15.131-11.154,1,0,14.338,3.837,12.772,3.837,19.39-3.837,4.624-3.837,4.624Z" transform="translate(0)" fill="#476ecb"/>
          <g id="Group_7824" data-name="Group 7824" transform="translate(9.787 34.005)">
            <g id="Group_7823" data-name="Group 7823" transform="translate(0 0)">
              <path id="Path_3091" data-name="Path 3091" d="M3.3,46.284,0,0" transform="translate(8.764 0)" fill="none" stroke="#2852a2" stroke-width="1"/>
              <path id="Path_3092" data-name="Path 3092" d="M0,4.782,3.687,0" transform="translate(11.197 27.202)" fill="none" stroke="#2852a2" stroke-width="1"/>
              <path id="Path_3093" data-name="Path 3093" d="M10.409,7.844,0,0" transform="translate(0 14.517)" fill="none" stroke="#2852a2" stroke-width="1"/>
              <path id="Path_3094" data-name="Path 3094" d="M0,7.055,6.678,0" transform="translate(9.533 2.752)" fill="none" stroke="#2852a2" stroke-width="1"/>
            </g>
          </g>
        </g>
      </g>
    </g>
    <g id="Group_7833" data-name="Group 7833" transform="translate(857.448 11.954)">
      <g id="Group_7830" data-name="Group 7830" transform="translate(31.281 0)">
        <path id="Path_3098" data-name="Path 3098" d="M-16354.666,3566.683l-8.427-25.04-15.655,5.3,10.429,13.452,3.875-2.851v10.366Z" transform="translate(16460.684 -3528.991)" fill="#fff" stroke="#707070" stroke-width="1"/>
        <path id="Path_3095" data-name="Path 3095" d="M-16382.912,3665.474v-1.714l-5.219-14.208h39s15.24,1.275,19.865-7.547-.6-13.389-6.541-23.588,1.969-27.414,1.969-27.414,10.8-20.421-4-33.524a22.29,22.29,0,0,0-10.018,2.976l-15.678,26.256,14.4,33.5s-36.059-6.054-57.758,7.036-9.6,24.468-9.6,24.468l20.791,15.908Z" transform="translate(16443.066 -3522.204)" fill="#efbbd4" stroke="#707070" stroke-width="1"/>
        <path id="Path_3096" data-name="Path 3096" d="M-16376.568,3649.341l-1.4-1.6-10.164-16.472h39s15.24,1.275,19.865-7.547-.6-13.389-6.541-23.588c-1.295,2.049-12.791,1.107-13.324,1.794,0,0-36.059-6.054-57.758,7.035s-9.6,24.468-9.6,24.468l20.791,15.908Z" transform="translate(16443.066 -3503.923)" fill="#004ac4" stroke="#707070" stroke-width="1"/>
        <path id="Path_3097" data-name="Path 3097" d="M-16351.182,3575.933l-19.384,26.7-32.847-2.462-4.627-1.366-7.691,4.914,6.531,1.179,4.795-1.179,42.219,7.678,14.952-20.21" transform="translate(16444.834 -3514.296)" fill="#efbbd4" stroke="#707070" stroke-width="1"/>
        <path id="Path_3099" data-name="Path 3099" d="M-16361.868,3542.5l-7.034-5.421-10.715,11.764Z" transform="translate(16460.311 -3530.947)" fill="#4e55b0" stroke="#707070" stroke-width="1"/>
        <g id="Group_7898" data-name="Group 7898" transform="matrix(0.588, 0.809, -0.809, 0.588, 24.814, 0)">
          <path id="Path_3088" data-name="Path 3088" d="M0,30.672s1.431-6.323,4.135-6.323,7.342,1.609,8.8-3.585,2.282-4.621,8.141-4.632,5.4-2.09,6.584-6.609,4.732-2.451,7.984-3.128S38.222,5.588,41.459,0" transform="translate(0 0)" fill="none" stroke="#707070" stroke-width="1"/>
        </g>
        <path id="Path_8160" data-name="Path 8160" d="M0,0,2.664,20,19.649,3.082Z" transform="matrix(0.996, -0.087, 0.087, 0.996, 125.491, 43.805)" fill="#a6e4f1" stroke="#707070" stroke-width="1"/>
      </g>
      <g id="Group_7831" data-name="Group 7831" transform="translate(0 94.591)">
        <rect id="Rectangle_108" data-name="Rectangle 108" width="82.857" height="5.714" fill="#2e3594"/>
        <rect id="Rectangle_109" data-name="Rectangle 109" width="4.286" height="47.143" transform="translate(10 4.286)" fill="#2e3594"/>
        <rect id="Rectangle_110" data-name="Rectangle 110" width="4.286" height="47.143" transform="translate(65.714 4.286)" fill="#2e3594"/>
      </g>
      <g id="Group_7832" data-name="Group 7832" transform="translate(90 127.448)">
        <rect id="Rectangle_108-2" data-name="Rectangle 108" width="61.429" height="2.857" fill="#2e3594"/>
        <rect id="Rectangle_109-2" data-name="Rectangle 109" width="2.857" height="15.714" transform="translate(21.429 2.857)" fill="#2e3594"/>
        <rect id="Rectangle_110-2" data-name="Rectangle 110" width="2.857" height="15.714" transform="translate(37.143 2.857)" fill="#2e3594"/>
      </g>
      <path id="Path_3100" data-name="Path 3100" d="M-16427.463,3608.763h31.943v-3.412h-30.646l-14.84-29.131-2.541,2.558Z" transform="translate(16464.193 -3514.172)" fill="#8b90cf"/>
    </g>
  </g>
</svg>
