<svg xmlns="http://www.w3.org/2000/svg" width="174.802" height="151.834" viewBox="0 0 174.802 151.834">
  <g id="Group_8878" data-name="Group 8878" transform="translate(14397 -486.437)">
    <g id="Ellipse_5" data-name="Ellipse 5" transform="translate(-14309.781 537.754)" fill="#5a60b9" stroke="#707070" stroke-width="1" opacity="0.366">
      <circle cx="40.829" cy="40.829" r="40.829" stroke="none"/>
      <circle cx="40.829" cy="40.829" r="40.329" fill="none"/>
    </g>
    <g id="Ellipse_3" data-name="Ellipse 3" transform="translate(-14397 537.754)" fill="#3057af" stroke="#707070" stroke-width="1">
      <circle cx="9.16" cy="9.16" r="9.16" stroke="none"/>
      <circle cx="9.16" cy="9.16" r="8.66" fill="none"/>
    </g>
    <g id="Group_7818" data-name="Group 7818" transform="translate(-14368.518 506.413)">
      <path id="Path_3074" data-name="Path 3074" d="M-14054.7,1503.5l-6.369,29.592-18.705-26.992-9.682,21.333,23.227,22.286s6.783,5.341,12.83,0,4.934-46.219,4.934-46.219Z" transform="translate(14183.978 -1463.522)" fill="#5a60b9" stroke="#707070" stroke-width="1"/>
      <path id="Path_3073" data-name="Path 3073" d="M-14112.455,1481.555l-25.773,48.092s-7.385,8.588,0,20.813a93.7,93.7,0,0,1,10.229,25.487l8.237-1.021-8.237-34.185s25.032-29.621,27.448-44.682S-14112.455,1481.555-14112.455,1481.555Z" transform="translate(14208.787 -1453.063)" fill="#5a60b9" stroke="#707070" stroke-width="1"/>
      <path id="Path_3078" data-name="Path 3078" d="M-14054.7,1503.5l-6.369,29.592-18.705-26.992-9.682,21.333,23.227,22.286s6.783,5.341,12.83,0,4.934-46.219,4.934-46.219Z" transform="translate(14183.978 -1463.522)" fill="#1ca8c1" stroke="#707070" stroke-width="1"/>
      <path id="Path_3080" data-name="Path 3080" d="M-14076.979,1525.475c.9-5.167-3.548,19.085-3.548,19.085l-4.934-4.609S-14077.873,1530.643-14076.979,1525.475Z" transform="translate(14182.076 -1473.65)" fill="#0c5664" stroke="#707070" stroke-width="1"/>
      <path id="Path_3082" data-name="Path 3082" d="M-14107.811,1659.04l1.766,6.653-5.109.585-3.844-7.239Z" transform="translate(14196.151 -1537.644)" fill="#fbf6ea" stroke="#707070" stroke-width="1"/>
      <path id="Path_3077" data-name="Path 3077" d="M-14112.455,1481.555l-25.773,48.092s-7.385,8.588,0,20.813a93.7,93.7,0,0,1,10.229,25.487l8.237-1.021-8.237-34.185s25.032-29.621,27.448-44.682S-14112.455,1481.555-14112.455,1481.555Z" transform="translate(14208.787 -1453.063)" fill="#1ca8c1" stroke="#707070" stroke-width="1"/>
      <path id="Path_3065" data-name="Path 3065" d="M-14237.471,1446.152c-3.135-2.243,63.339-24.4,74.7-17.8s-2.732,38.925-2.732,38.925h-7l-15.821,25.688-43.493-16.981-2.461,1.426-12.135,25.76s-3.178,6.169-8.174,3.019-1.919-23.633-1.919-23.633,2.315-17.054,11.994-27.907c.905,4.768,4.7,3.207,4.7,3.207s6.077-1.828,5.531-7.741C-14235.844,1446.074-14234.336,1448.395-14237.471,1446.152Z" transform="translate(14264.033 -1427.127)" fill="#fabb2e" stroke="#707070" stroke-width="1"/>
      <path id="Path_3066" data-name="Path 3066" d="M-14232.617,1518.695l-4.863-3.627-16.125,20.545" transform="translate(14262.205 -1469.035)" fill="none" stroke="#707070" stroke-width="1"/>
      <g id="Group_7816" data-name="Group 7816" transform="translate(11.147 5.079)">
        <path id="Path_3084" data-name="Path 3084" d="M-14237.11,1465.557s1.3,4.713,4.94,3.434,2.61-.868,5.369-4.117-.393-6.1-.393-6.1l-2.187-1.405-5.983-6.944-5.955,4.32Z" transform="translate(14245.202 -1443.309)" fill="#fff" stroke="#707070" stroke-width="1"/>
        <path id="Path_3083" data-name="Path 3083" d="M-14240.422,1459l-6.459-15.674-1.621-3.667,7.167-2.833,3.179,5.27v8.075l-4.768-1.6" transform="translate(14248.624 -1436.831)" fill="#fff" stroke="#707070" stroke-width="1"/>
        <path id="Path_3085" data-name="Path 3085" d="M-14241.668,1436.831l.9,5.271-6.373.56-1.594-3.042Z" transform="translate(14248.736 -1436.831)" fill="#5a60b9" stroke="#707070" stroke-width="1"/>
      </g>
      <path id="Path_3067" data-name="Path 3067" d="M-14096.346,1472.988h-1.814l1.814-33.516" transform="translate(14188.127 -1433.01)" fill="none" stroke="#707070" stroke-width="1"/>
      <g id="Group_8867" data-name="Group 8867" transform="translate(0 6.606)">
        <g id="Group_8856" data-name="Group 8856" transform="translate(30.745 0)">
          <rect id="Rectangle_3392" data-name="Rectangle 3392" width="60.838" height="121.209" rx="18" transform="translate(0)" fill="#fff"/>
          <path id="Path_4500" data-name="Path 4500" d="M1370.17,483.7v-2.036a.285.285,0,0,1,.57,0V483.7a.285.285,0,0,1-.57,0Zm60.3,49.312a.285.285,0,0,0-.285.285v19.787a7.7,7.7,0,0,1-7.692,7.692h-44.063a7.7,7.7,0,0,1-7.692-7.692V487.119a.285.285,0,1,0-.57,0v65.963a8.271,8.271,0,0,0,8.262,8.262h44.063a8.271,8.271,0,0,0,8.262-8.262V533.3A.285.285,0,0,0,1430.472,533.01Zm-7.977-92.65h-44.063a8.271,8.271,0,0,0-8.262,8.262v19.766a.285.285,0,1,0,.57,0V448.622a7.7,7.7,0,0,1,7.692-7.692h44.063a7.7,7.7,0,0,1,7.692,7.692V529.06a.285.285,0,0,0,.57,0V448.622A8.271,8.271,0,0,0,1422.495,440.36Zm6.363,8.262a6.37,6.37,0,0,0-6.363-6.363h-44.063a6.37,6.37,0,0,0-6.363,6.363v104.46a6.37,6.37,0,0,0,6.363,6.363h10.323a.285.285,0,1,0,0-.57h-10.323a5.8,5.8,0,0,1-5.793-5.793V448.622a5.8,5.8,0,0,1,5.793-5.793h44.063a5.8,5.8,0,0,1,5.793,5.793v14.8a.285.285,0,1,0,.57,0Zm-.285,30.394a.285.285,0,0,0-.285.285v73.781a5.8,5.8,0,0,1-5.793,5.793h-28.447a.285.285,0,0,0,0,.57h28.447a6.37,6.37,0,0,0,6.363-6.363V479.3A.285.285,0,0,0,1428.573,479.016Z" transform="translate(-1370.138 -440.237)" fill="#00a7c2"/>
          <g id="Group_8854" data-name="Group 8854" transform="translate(24.206 7.255)">
            <path id="Path_4501" data-name="Path 4501" d="M2004.937,625.537h-10.918a.66.66,0,0,1-.66-.66h0a.66.66,0,0,1,.66-.66h10.918a.66.66,0,0,1,.66.66h0A.66.66,0,0,1,2004.937,625.537Z" transform="translate(-1993.359 -624.216)" fill="#00a7c2"/>
          </g>
          <g id="Group_8855" data-name="Group 8855" transform="translate(19.727 7.299)">
            <circle id="Ellipse_92" data-name="Ellipse 92" cx="0.616" cy="0.616" r="0.616" fill="#00a7c2"/>
          </g>
        </g>
        <path id="Path_4502" data-name="Path 4502" d="M562.246,846.758H537.951v-1.767h2.372V801.245H485.9c-.6,0,1.978,37.433-.073,43.746v12.139a2.349,2.349,0,0,1-2.35,2.349h-8.689a2.349,2.349,0,0,0-2.349,2.349v10.43a2.349,2.349,0,0,0,2.349,2.349h11.039v21.812h52.125V861.883h24.295a3.062,3.062,0,0,0,3.062-3.061v-9A3.062,3.062,0,0,0,562.246,846.758Z" transform="translate(-450.819 -787.123)" fill="#fff"/>
        <path id="Path_4503" data-name="Path 4503" d="M665.437,846.649h-9.852v-.006H647.8a3.061,3.061,0,0,0-3.061,3.061v9a3.061,3.061,0,0,0,3.061,3.061h2.046v7.047l7.047-7.047h3.967a3.061,3.061,0,0,1,3.061,3.061V896.3H611.8V892.69a3.062,3.062,0,0,0-3.061-3.061H588l-6.9,6.9v-6.9h-1.257a3.061,3.061,0,0,1-3.061-3.061v-9a3.061,3.061,0,0,1,3.061-3.061h39.037l7.593,7.593V874.5h.535a3.062,3.062,0,0,0,3.062-3.062v-9a3.062,3.062,0,0,0-3.062-3.062H614.857a3.061,3.061,0,0,1-3.057-2.9h0v-18.1c0-.7.081-23.116,0-22.381V801.131h7.484v0c.145,0,.29,0,.435,0h45.945C665.405,814.7,665.437,846.649,665.437,846.649Z" transform="translate(-576.788 -787.009)" fill="#3057af"/>
        <path id="Path_4504" data-name="Path 4504" d="M1815.635,2764.456h-13.97v10.125a2.211,2.211,0,0,1-2.211,2.211h-16.209v1.013a1.779,1.779,0,0,0,1.779,1.779h22.125l6.9,6.9v-6.9h1.582a2.211,2.211,0,0,0,2.211-2.211v-10.706A2.211,2.211,0,0,0,1815.635,2764.456Z" transform="translate(-1736.445 -2674.179)" fill="#fff"/>
        <g id="Group_8858" data-name="Group 8858" transform="translate(15.174 92.094)">
          <rect id="Rectangle_3382" data-name="Rectangle 3382" width="15.709" height="1.662" transform="translate(7.554)" fill="#fff"/>
          <rect id="Rectangle_3383" data-name="Rectangle 3383" width="9.222" height="1.662" transform="translate(14.04 4.016)" fill="#fff"/>
          <rect id="Rectangle_3384" data-name="Rectangle 3384" width="5.377" height="1.662" fill="#fff"/>
          <rect id="Rectangle_3385" data-name="Rectangle 3385" width="11.736" height="1.662" transform="translate(0 4.016)" fill="#fff"/>
        </g>
        <g id="Group_8859" data-name="Group 8859" transform="translate(85.082 64.428)">
          <rect id="Rectangle_3386" data-name="Rectangle 3386" width="15.709" height="1.662" transform="translate(15.709 5.677) rotate(180)" fill="#3057af"/>
          <rect id="Rectangle_3387" data-name="Rectangle 3387" width="9.222" height="1.662" transform="translate(9.222 1.662) rotate(180)" fill="#3057af"/>
          <rect id="Rectangle_3388" data-name="Rectangle 3388" width="5.377" height="1.662" transform="translate(23.263 5.677) rotate(180)" fill="#3057af"/>
          <rect id="Rectangle_3389" data-name="Rectangle 3389" width="11.736" height="1.662" transform="translate(23.263 1.662) rotate(180)" fill="#3057af"/>
        </g>
        <g id="Group_8864" data-name="Group 8864" transform="translate(68.329 93.121)">
          <g id="Group_8860" data-name="Group 8860" transform="translate(0 1.435)">
            <path id="Path_4506" data-name="Path 4506" d="M2342.528,2874.78l-2.045,1.623h-2.221v3.241h2.221l2.045,1.623Z" transform="translate(-2338.261 -2874.78)" fill="#3057af"/>
          </g>
          <g id="Group_8861" data-name="Group 8861" transform="translate(4.821)">
            <path id="Path_4507" data-name="Path 4507" d="M2462.539,2846.976v-.189a4.411,4.411,0,0,0,0-8.823v-.189a4.6,4.6,0,0,1,0,9.2Z" transform="translate(-2462.539 -2837.774)" fill="#3057af"/>
          </g>
          <g id="Group_8862" data-name="Group 8862" transform="translate(4.821 1.262)">
            <path id="Path_4508" data-name="Path 4508" d="M2462.539,2876.986v-.189a3.149,3.149,0,0,0,0-6.3v-.189a3.339,3.339,0,0,1,0,6.677Z" transform="translate(-2462.539 -2870.309)" fill="#3057af"/>
          </g>
          <g id="Group_8863" data-name="Group 8863" transform="translate(4.821 2.366)">
            <path id="Path_4509" data-name="Path 4509" d="M2462.537,2903.248v-.5a1.73,1.73,0,0,0,0-3.459v-.5a2.234,2.234,0,0,1,0,4.469Z" transform="translate(-2462.537 -2898.78)" fill="#3057af"/>
          </g>
        </g>
        <rect id="Rectangle_3390" data-name="Rectangle 3390" width="11.499" height="7.259" transform="translate(25.422 76.687)" fill="#fff"/>
        <path id="Path_4510" data-name="Path 4510" d="M1239.38,2478.211l-1.228,1.228-2.825-2.825-3.174,3.174v1.661h10.464Z" transform="translate(-1206.731 -2397.502)" fill="#3057af"/>
        <circle id="Ellipse_93" data-name="Ellipse 93" cx="0.779" cy="0.779" r="0.779" transform="translate(33.305 79.18) rotate(-67.5)" fill="#ffed4b"/>
        <path id="Path_4511" data-name="Path 4511" d="M2643.6,915.658l-1.506,1.506-1.506-1.506-.674.674,1.506,1.506-1.506,1.506.674.674,1.506-1.506,1.506,1.506.674-.674-1.506-1.506,1.506-1.506Z" transform="translate(-2559.888 -897.098)" fill="#fff"/>
        <g id="Rectangle_3391" data-name="Rectangle 3391" transform="translate(37.328 29.075)" fill="#fff" stroke="#707070" stroke-width="1">
          <rect width="49.798" height="23.883" stroke="none"/>
          <rect x="0.5" y="0.5" width="48.798" height="22.883" fill="none"/>
        </g>
      </g>
      <path id="Path_3079" data-name="Path 3079" d="M-14021.523,1485.294l4.912-4.925.543-5.671-5.869,6.695Z" transform="translate(14151.804 -1449.797)" fill="#393678" stroke="#707070" stroke-width="1"/>
      <path id="Path_3068" data-name="Path 3068" d="M-14100.557,1503.5s-2.33,7.459-7.066,7.012a35.159,35.159,0,0,1-5.527-.727l.874-1.149-.874-.441.264-1.265h1.279v-1.494h4.918l-1.814-1.937,3.273,1.089.309-1.089Z" transform="translate(14195.271 -1463.522)" fill="#f9f7ea" stroke="#707070" stroke-width="1"/>
      <path id="Path_3069" data-name="Path 3069" d="M-14112.021,1513.382l4.4.576" transform="translate(14194.733 -1468.232)" fill="none" stroke="#707070" stroke-width="1"/>
      <path id="Path_3070" data-name="Path 3070" d="M-14110.146,1509.194l3.08.45" transform="translate(14193.84 -1466.236)" fill="none" stroke="#707070" stroke-width="1"/>
      <path id="Path_3071" data-name="Path 3071" d="M-14222.22,1505.642l1.026-1.809-2-3.085.34-.621.636.621v-5.506h.526v-.864h1.131v.864h1.241l.114,1.367.16,1.944.633-1.944.563,1.484.783,4.585a3.678,3.678,0,0,1,.281,4.2c-1.38,2.241-1.627,1.493-1.627,1.493Z" transform="translate(14247.713 -1459.176)" fill="#f9f7ea" stroke="#707070" stroke-width="1"/>
      <path id="Path_3072" data-name="Path 3072" d="M-14218.481,1499.605v-3.167" transform="translate(14245.467 -1460.157)" fill="none" stroke="#707070" stroke-width="1"/>
      <path id="Path_3075" data-name="Path 3075" d="M-14108.777,1671.108l-5.49.859-6.35,2.787h13.927Z" transform="translate(14198.829 -1543.395)" fill="#393678" stroke="#707070" stroke-width="1"/>
      <path id="Path_3076" data-name="Path 3076" d="M-14021.523,1485.294l4.912-4.925.543-5.671-5.869,6.695Z" transform="translate(14151.804 -1449.797)" fill="#393678" stroke="#707070" stroke-width="1"/>
      <path id="Path_3081" data-name="Path 3081" d="M-14021.937,1494.844l.576-4.977,4.729-4.531v9.508Z" transform="translate(14151.804 -1454.867)" fill="#f9f7ea" stroke="#707070" stroke-width="1"/>
    </g>
    <g id="Group_7819" data-name="Group 7819" transform="translate(-14256.053 494.05)">
      <path id="Path_3088" data-name="Path 3088" d="M-14021.365,1434.942s1.154-5.1,3.334-5.1,5.919,1.3,7.093-2.89,1.839-3.725,6.563-3.735,4.354-1.685,5.308-5.328,3.814-1.976,6.438-2.522,2.079-.65,4.688-5.155" transform="translate(14021.365 -1410.216)" fill="none" stroke="#707070" stroke-width="1"/>
    </g>
    <path id="Path_3089" data-name="Path 3089" d="M-14044.16,1416.7l2.146,16.124,13.693-13.639Z" transform="translate(-240.632 -929.665)" fill="#1ca8c1" stroke="#707070" stroke-width="1"/>
  </g>
</svg>
