<svg xmlns="http://www.w3.org/2000/svg" viewBox="0 0 20 20"><defs><style>.aae620d7-3335-4761-8807-d47855e06648,.b20fc71f-f53b-4443-9923-aa2443eaea7d{fill:#707070;}.b20fc71f-f53b-4443-9923-aa2443eaea7d{opacity:0;}</style></defs><g id="a92b938e-9dd2-452a-a3b2-8abeda1675f0" data-name="background"><rect class="b20fc71f-f53b-4443-9923-aa2443eaea7d" width="20" height="20"/></g><g id="a3ed071d-a675-475c-9008-6b6065bb2fde" data-name="Layer 10"><path class="aae620d7-3335-4761-8807-d47855e06648" d="M.5,7v7.9a2.6,2.6,0,0,0,2.6,2.6H16.9a2.6,2.6,0,0,0,2.6-2.6V5.1a2.6,2.6,0,0,0-2.6-2.6H3.1A2.6,2.6,0,0,0,.5,5.1V7ZM3.1,3.5H16.9a1.6,1.6,0,0,1,1.6,1.6V6.5l-8.2,6.4L1.5,6.5V5.1A1.6,1.6,0,0,1,3.1,3.5ZM18.5,14.9a1.6,1.6,0,0,1-1.6,1.6H3.1a1.6,1.6,0,0,1-1.6-1.6V7.8l8.8,6.3,8.2-6.3Z" transform="translate(0 0)"/></g></svg>