<svg xmlns="http://www.w3.org/2000/svg" width="146.945" height="150.247" viewBox="0 0 146.945 150.247">
  <g id="Group_8088" data-name="Group 8088" transform="translate(0 3.306)">
    <path id="Subtraction_2" data-name="Subtraction 2" d="M-4354-3862.366a36.177,36.177,0,0,1-8.247-.949,35.808,35.808,0,0,1-7.572-2.7,36.047,36.047,0,0,1-6.68-4.243,36.253,36.253,0,0,1-5.574-5.566,35.9,35.9,0,0,0,19.074,5.463,35.776,35.776,0,0,0,14.013-2.829,35.883,35.883,0,0,0,11.443-7.715,35.879,35.879,0,0,0,7.715-11.443,35.767,35.767,0,0,0,2.829-14.013,35.889,35.889,0,0,0-2.1-12.154,35.846,35.846,0,0,0-5.822-10.383,36.246,36.246,0,0,1,12.275,12.826,35.79,35.79,0,0,1,3.436,8.4,36.087,36.087,0,0,1,1.215,9.309,35.767,35.767,0,0,1-2.829,14.013,35.882,35.882,0,0,1-7.716,11.443,35.877,35.877,0,0,1-11.443,7.715A35.775,35.775,0,0,1-4354-3862.366Z" transform="translate(4429.376 3972.676)" fill="#707070"/>
    <g id="Group_7255" data-name="Group 7255" transform="translate(73.468)">
      <path id="Path_3030" data-name="Path 3030" d="M-16442.168-12574.826v-28.471" transform="translate(16444.168 12599.991)" fill="none" stroke="#707070" stroke-width="2"/>
      <path id="Path_3031" data-name="Path 3031" d="M-16442.168-12578.141v-25.164" transform="translate(16442.168 12725.082)" fill="none" stroke="#707070" stroke-width="2"/>
    </g>
    <g id="Group_7256" data-name="Group 7256" transform="translate(127.203 23.367) rotate(47)">
      <path id="Path_3030-2" data-name="Path 3030" d="M0,25.163V0" transform="translate(0 0)" fill="none" stroke="#707070" stroke-width="2"/>
      <path id="Path_3031-2" data-name="Path 3031" d="M0,25.163V0" transform="translate(0 121.781)" fill="none" stroke="#707070" stroke-width="2"/>
    </g>
    <g id="Group_7257" data-name="Group 7257" transform="translate(146.945 73.475) rotate(90)">
      <path id="Path_3030-3" data-name="Path 3030" d="M0,25.165V0" transform="translate(0)" fill="none" stroke="#707070" stroke-width="2"/>
      <path id="Path_3031-3" data-name="Path 3031" d="M0,25.165V0" transform="translate(0 121.78)" fill="none" stroke="#707070" stroke-width="2"/>
    </g>
    <g id="Group_7258" data-name="Group 7258" transform="translate(125.422 125.429) rotate(135)">
      <path id="Path_3030-4" data-name="Path 3030" d="M0,25.165V0" transform="translate(0 0)" fill="none" stroke="#707070" stroke-width="2"/>
      <path id="Path_3031-4" data-name="Path 3031" d="M0,25.165V0" transform="translate(0 121.781)" fill="none" stroke="#707070" stroke-width="2"/>
    </g>
  </g>
</svg>
