<svg xmlns="http://www.w3.org/2000/svg" viewBox="0 0 20 20"><defs><style>.a14b5e54-d468-4622-a6c6-dcfa7018bc2a,.af707551-d328-4342-9d01-ad3edde60e6a{fill:#707070;}.a14b5e54-d468-4622-a6c6-dcfa7018bc2a{opacity:0;}.febe2a22-4670-4750-af4f-a28422c935ea{fill:#fff;}</style></defs><g id="b140bc86-551d-47ca-a807-7aeaa12b9a6b" data-name="background"><rect class="a14b5e54-d468-4622-a6c6-dcfa7018bc2a" width="20" height="20"/></g><g id="a0a6335f-4ced-4fe8-be8d-d3d1a954cbee" data-name="Layer 13"><g id="b32013fd-5048-48cb-9dca-8ad7631f04f0" data-name="Group 8091"><g id="ee1f0dd6-f8d6-44a2-8177-65cfa3095884" data-name="Ellipse 1071"><circle class="febe2a22-4670-4750-af4f-a28422c935ea" cx="8.6" cy="13.5" r="5.4"/><path class="af707551-d328-4342-9d01-ad3edde60e6a" d="M8.6,18.8a5.3,5.3,0,0,1-5.3-5.3A5.2,5.2,0,0,1,8.6,8.3a5.2,5.2,0,0,1,5.3,5.2A5.3,5.3,0,0,1,8.6,18.8Zm0-9.5a4.3,4.3,0,1,0,0,8.5,4.3,4.3,0,0,0,4.3-4.3A4.3,4.3,0,0,0,8.6,9.3Z" transform="translate(0 0)"/></g><g id="e1ec9611-8154-4196-8262-7b90a955bc5d" data-name="Path 8073"><rect class="af707551-d328-4342-9d01-ad3edde60e6a" x="8.6" y="3.5" width="1" height="5.84" transform="translate(-1.7 3.6) rotate(-20.5)"/></g><g id="afa7b978-c0e4-4d77-ae83-65fdea31aee1" data-name="Path 8074"><polygon class="af707551-d328-4342-9d01-ad3edde60e6a" points="14.2 16.6 15.7 11 13.1 12 12.7 11.1 17.2 9.3 15.6 15.4 16.9 15.2 17.1 16.2 14.2 16.6"/></g><g id="b14775c2-cb73-47ca-9157-35afe5c203ee" data-name="Path 8075"><rect class="af707551-d328-4342-9d01-ad3edde60e6a" x="10.1" y="7.9" width="5.9" height="1" transform="translate(-2.1 5.2) rotate(-20.7)"/></g><g id="a976706b-f6dd-4da7-8abd-9a3a71aeaf86" data-name="Ellipse 1072"><circle class="febe2a22-4670-4750-af4f-a28422c935ea" cx="9.4" cy="3" r="2"/><path class="af707551-d328-4342-9d01-ad3edde60e6a" d="M9.4,5a2,2,0,0,1-2-2,2,2,0,0,1,2-1.9A2,2,0,0,1,11.3,3,2,2,0,0,1,9.4,5Zm0-2.9a1,1,0,0,0-1,.9,1,1,0,0,0,1,1,.9.9,0,0,0,.9-1A.9.9,0,0,0,9.4,2.1Z" transform="translate(0 0)"/></g></g></g></svg>