<svg xmlns="http://www.w3.org/2000/svg" viewBox="0 0 20 20"><defs><style>.b6f858d8-25fd-4cb0-bede-cb0417f58fc4,.b74921c5-b464-4c32-a7f4-559ae83093e0{fill:#707070;}.b6f858d8-25fd-4cb0-bede-cb0417f58fc4{opacity:0;}.fc3bf1d1-c99f-4bac-a3b2-d7be565bf1a2{fill:#fff;}</style></defs><g id="b69ed296-61b0-40c8-b00f-c7d662cdf21a" data-name="background"><rect class="b6f858d8-25fd-4cb0-bede-cb0417f58fc4" width="20" height="20"/></g><g id="a3a630b5-6abe-47d2-ae6b-571dccf79342" data-name="Layer 6"><g id="baba2502-55f3-4d4f-ba79-35e02de4c4a8" data-name="Group 7621"><g id="bd8136f7-ac09-457b-8d29-a4bd7df09094" data-name="Rectangle 2659"><rect class="fc3bf1d1-c99f-4bac-a3b2-d7be565bf1a2" x="0.2" y="2.2" width="19.6" height="15.64" rx="2"/><path class="b74921c5-b464-4c32-a7f4-559ae83093e0" d="M17.8,17.8H2.2a1.9,1.9,0,0,1-2-1.9V4.1a2,2,0,0,1,2-1.9H17.8a2,2,0,0,1,2,1.9V15.9A1.9,1.9,0,0,1,17.8,17.8ZM2.2,3.2a.9.9,0,0,0-1,.9V15.9a.9.9,0,0,0,1,.9H17.8a.9.9,0,0,0,1-.9V4.1a.9.9,0,0,0-1-.9Z" transform="translate(0 0)"/></g><g id="adf32eaf-83c6-41b5-8e98-4a34dbc2dd20" data-name="Path 3077"><rect class="b74921c5-b464-4c32-a7f4-559ae83093e0" x="0.6" y="14.1" width="18.6" height="1"/></g><g id="ad144bfd-652b-4903-911e-84416bffda42" data-name="Group 7312"><g id="f5678b2d-db0f-462a-aa18-2c1d2068ea32" data-name="Path 3078"><rect class="b74921c5-b464-4c32-a7f4-559ae83093e0" x="6.2" y="11.6" width="4.7" height="1" transform="translate(-4.5 19.2) rotate(-82.9)"/></g><g id="bd4d6aee-8249-4ff9-8c57-a7fba493dccb" data-name="Path 3079"><rect class="b74921c5-b464-4c32-a7f4-559ae83093e0" x="10.1" y="10" width="1" height="4.51" transform="translate(-1 1) rotate(-5.1)"/></g><g id="b8e6f529-e6ed-4585-9bec-368afe58bcca" data-name="Path 3080"><path class="b74921c5-b464-4c32-a7f4-559ae83093e0" d="M9.7,10.7a2,2,0,0,1-1.5-.6l-.5-.7h0a3.3,3.3,0,0,1,.6-2.5l.8-1.4.4-.9,1.6,2.7a2.2,2.2,0,0,1,0,2.9A2,2,0,0,1,9.7,10.7Zm-1-1.6.2.3a1.1,1.1,0,0,0,1.5,0c.6-.6-.1-1.7-.1-1.7L9.6,6.6l-.4.7C8.6,8.4,8.6,8.5,8.7,9.1Z" transform="translate(0 0)"/></g></g><g id="b1528e61-4546-4a20-b6a2-c321a292f94d" data-name="Group 7314"><g id="b2acf4e8-8555-43e4-9cd2-25725700d47b" data-name="Path 3082"><rect class="b74921c5-b464-4c32-a7f4-559ae83093e0" x="2.8" y="8.6" width="3" height="1"/></g><g id="eb5a1f99-56a5-4850-b24c-76104a945af3" data-name="Group 7313"><g id="af25781a-ff16-4237-8c1a-39a69f3142b5" data-name="Path 3081"><polygon class="b74921c5-b464-4c32-a7f4-559ae83093e0" points="6.3 14.6 5.3 14.6 5.3 9.1 4.3 7.3 3.3 9.3 3.3 14.6 2.3 14.6 2.4 9 4.3 5.1 6.3 8.9 6.3 14.6"/></g><g id="b4340494-45a1-4659-9a46-c8333277182e" data-name="Path 3083"><rect class="b74921c5-b464-4c32-a7f4-559ae83093e0" x="3.8" y="8.9" width="1" height="5.75"/></g></g></g><g id="fdbdf879-797e-4fbe-9a99-ef8b481dd08c" data-name="Group 7315"><g id="a06478ed-b04b-416a-bd58-ed31adc37fb7" data-name="Path 3084"><polygon class="b74921c5-b464-4c32-a7f4-559ae83093e0" points="18 14.6 17 14.6 17 6 14.7 6 14.7 14.6 13.7 14.6 13.7 5 18 5 18 14.6"/></g><g id="fab10f64-e4ac-4b30-81d4-bca1675cbec6" data-name="Path 3085"><rect class="b74921c5-b464-4c32-a7f4-559ae83093e0" x="15.9" y="12.7" width="1.6" height="1"/></g><g id="fc74f5d9-a323-4f6f-86b1-cd98128e95f9" data-name="Path 3086"><rect class="b74921c5-b464-4c32-a7f4-559ae83093e0" x="15.9" y="6.8" width="1.6" height="1"/></g><g id="b6d96af7-e646-4325-9dcb-4c8404ec9a50" data-name="Path 3087"><rect class="b74921c5-b464-4c32-a7f4-559ae83093e0" x="15.9" y="9.8" width="1.6" height="1"/></g></g></g></g></svg>