<svg xmlns="http://www.w3.org/2000/svg" viewBox="0 0 20 20"><defs><style>.b03764bf-a9a4-4c61-9489-39236c645290,.ea8508f0-0047-488f-9317-9d4bc7462a62{fill:#707070;}.b03764bf-a9a4-4c61-9489-39236c645290{opacity:0;}.efec9244-50fa-4b3d-8105-4677098c851e{fill:#fff;}</style></defs><g id="ad7b563d-a416-4474-a9c2-e307c8fc0965" data-name="background"><rect class="b03764bf-a9a4-4c61-9489-39236c645290" width="20" height="20"/></g><g id="b783c8b5-613f-4f57-b40b-2a608939a146" data-name="Layer 5"><g id="ff8576cc-eb99-46e0-afd4-1776e8c111b1" data-name="Group 7620"><path class="efec9244-50fa-4b3d-8105-4677098c851e" d="M13.9,15.5H9.6l2.2-4.4Z" transform="translate(0 0)"/><g id="fb9ae1d0-7927-49dd-b3d1-943551373f4f" data-name="Path 3041"><path class="ea8508f0-0047-488f-9317-9d4bc7462a62" d="M16.5,18.8H3.5A2.6,2.6,0,0,1,.9,16.7h0V3a1.7,1.7,0,0,1,.7-1.3A1.6,1.6,0,0,1,3,1.2H5.8v1H3a1.1,1.1,0,0,0-.8.2.9.9,0,0,0-.3.7V16.5a1.6,1.6,0,0,0,1.6,1.3H16.3a1.9,1.9,0,0,0,1.4-1.6V9h1v7.4h0a3.2,3.2,0,0,1-2.1,2.4Z" transform="translate(0 0)"/></g><g id="e5295047-56c4-46b6-b2cf-935c9a36a407" data-name="Rectangle 2736"><rect class="efec9244-50fa-4b3d-8105-4677098c851e" x="8.8" y="3" width="7" height="5"/><path class="ea8508f0-0047-488f-9317-9d4bc7462a62" d="M15.8,8h-7V3h7Zm-6-1h5V4h-5Z" transform="translate(0 0)"/></g><path class="ea8508f0-0047-488f-9317-9d4bc7462a62" d="M11.8,12.2,10.4,15h2.7l-1.3-2.8m0-2.2,3,6h-6Z" transform="translate(0 0)"/><g id="ace621e6-7d54-4b17-8c64-8df0e7eb5bbf" data-name="Ellipse 61"><circle class="efec9244-50fa-4b3d-8105-4677098c851e" cx="5.8" cy="11" r="3"/><path class="ea8508f0-0047-488f-9317-9d4bc7462a62" d="M5.8,14a3,3,0,0,1-3-3,2.9,2.9,0,0,1,3-3,3,3,0,0,1,3,3A3.1,3.1,0,0,1,5.8,14Zm0-5a1.9,1.9,0,0,0-2,2,1.9,1.9,0,0,0,2,2,2,2,0,1,0,0-4Z" transform="translate(0 0)"/></g></g></g></svg>