<svg xmlns="http://www.w3.org/2000/svg" viewBox="0 0 20 20"><defs><style>.f4966601-4087-4595-9e67-314aaf6354f2,.f8f8c0b3-9541-485c-aa89-597b7d29020c{fill:#707070;}.f4966601-4087-4595-9e67-314aaf6354f2{opacity:0;}</style></defs><g id="fb7be714-03fc-4f0e-8de0-d288c5a08567" data-name="background"><rect class="f4966601-4087-4595-9e67-314aaf6354f2" width="20" height="20"/></g><g id="e820cf74-9bf3-49ba-96ff-dd5f7b18c68c" data-name="Layer 3"><g id="eefe6022-c8e3-4e09-adf5-6b85724ff7ae" data-name="Group 7562"><g id="a235b263-fd7f-4c68-99c5-ce2d05841ca1" data-name="Path 3043"><path class="f8f8c0b3-9541-485c-aa89-597b7d29020c" d="M4.1,19.7a2.8,2.8,0,0,1-2.7-2.3V3A2.7,2.7,0,0,1,3.2.3h8.4l6,5.8v.2c0,.4.1,9.3,0,11.1a2.3,2.3,0,0,1-2.2,2.3H4.1ZM3.5,1.3A1.6,1.6,0,0,0,2.4,3V17.3a1.8,1.8,0,0,0,1.9,1.4H15.4a1.2,1.2,0,0,0,1.2-1.3V6.5L11.2,1.3Z" transform="translate(0 0)"/></g><g id="a44a786f-cb9e-48c3-af33-6b47619e3b01" data-name="Path 3044"><polygon class="f8f8c0b3-9541-485c-aa89-597b7d29020c" points="17.1 7.3 10.6 7.3 10.6 0.9 11.6 0.9 11.6 6.3 17.1 6.3 17.1 7.3"/></g><g id="f3031639-eab2-4219-90d8-f10265c36fc0" data-name="Path 3045"><rect class="f8f8c0b3-9541-485c-aa89-597b7d29020c" x="5.1" y="6.7" width="3.2" height="1"/></g><g id="e1726974-95f0-423f-bfad-e52d1d263c62" data-name="Path 3046"><rect class="f8f8c0b3-9541-485c-aa89-597b7d29020c" x="5.1" y="10.4" width="8.7" height="1"/></g><g id="ef6fd65e-d74f-4328-9c75-cf8daf123033" data-name="Path 3047"><rect class="f8f8c0b3-9541-485c-aa89-597b7d29020c" x="5.1" y="14.2" width="8.7" height="1"/></g></g></g></svg>