<svg xmlns="http://www.w3.org/2000/svg" viewBox="0 0 20 20"><defs><style>.ae657575-0583-44ab-a085-063b3337dade,.ba1f3009-e390-4261-9d08-a376b20e1b6d{fill:#707070;}.ae657575-0583-44ab-a085-063b3337dade{opacity:0;}</style></defs><g id="fad20acf-2c86-48b2-8131-fb950c014c7e" data-name="background"><rect class="ae657575-0583-44ab-a085-063b3337dade" width="20" height="20"/></g><g id="b33ddd9f-d18b-452c-9de8-def2bf908d7e" data-name="Layer 8"><g id="f72efd27-5033-44d5-9569-afb33d6ddef5" data-name="Group 7259"><g id="b2973c07-fca7-4c13-a732-d4cabd0a86e0" data-name="Ellipse 32"><path class="ba1f3009-e390-4261-9d08-a376b20e1b6d" d="M10.2,14.3a4.2,4.2,0,1,1,4.2-4.2A4.2,4.2,0,0,1,10.2,14.3Zm0-7.4a3.2,3.2,0,1,0,3.2,3.2A3.2,3.2,0,0,0,10.2,6.9Z" transform="translate(0 0)"/></g><g id="beed4047-7b33-4088-a0b0-74e272847ef6" data-name="Group 7255"><g id="ee6809ee-4b86-4d2f-b907-0e547e75126b" data-name="Path 3030"><rect class="ba1f3009-e390-4261-9d08-a376b20e1b6d" x="9.5" y="0.6" width="1" height="3.2"/></g><g id="bded0345-6412-4825-926f-5fc50c6e937b" data-name="Path 3031"><rect class="ba1f3009-e390-4261-9d08-a376b20e1b6d" x="9.5" y="16.1" width="1" height="3.21"/></g></g><g id="f132a5eb-1bfa-48b0-8183-e68c6be921c2" data-name="Group 7256"><g id="b43c712d-cac7-474f-8401-1dd830f557c6" data-name="Path 3030-2"><rect class="ba1f3009-e390-4261-9d08-a376b20e1b6d" x="14.1" y="4.2" width="3.2" height="1" transform="translate(1 11.9) rotate(-43)"/></g><g id="b7d9edcd-acc9-45e0-acb0-a5474deef700" data-name="Path 3031-2"><rect class="ba1f3009-e390-4261-9d08-a376b20e1b6d" x="2.7" y="14.8" width="3.2" height="1" transform="translate(-9.2 7.1) rotate(-43)"/></g></g><g id="b68e43d3-4202-48f6-b92f-27d6a13bc122" data-name="Group 7257"><g id="a4d990ec-6515-4990-836d-b18609d5949f" data-name="Path 3030-3"><rect class="ba1f3009-e390-4261-9d08-a376b20e1b6d" x="16.2" y="9.5" width="3.2" height="1"/></g><g id="b31f48a1-a982-414f-a131-eb4034a95edd" data-name="Path 3031-3"><rect class="ba1f3009-e390-4261-9d08-a376b20e1b6d" x="0.6" y="9.5" width="3.2" height="1"/></g></g><g id="fcbca9cc-07c9-4d48-9d25-47120f630c35" data-name="Group 7258"><g id="a512a31b-5554-4397-a51c-84fe4220bae4" data-name="Path 3030-4"><rect class="ba1f3009-e390-4261-9d08-a376b20e1b6d" x="15" y="13.8" width="1" height="3.2" transform="translate(-6.4 15.5) rotate(-45)"/></g><g id="e6c32c6d-70f4-4b54-9c24-3665084c7b91" data-name="Path 3031-4"><rect class="ba1f3009-e390-4261-9d08-a376b20e1b6d" x="4" y="2.9" width="1" height="3.2" transform="translate(-1.8 4.5) rotate(-45)"/></g></g></g></g></svg>