<svg xmlns="http://www.w3.org/2000/svg" viewBox="0 0 20 20"><defs><style>.aa011227-0d42-493e-8aaa-e29b0732935d,.f8daf3b9-63de-4222-97ca-7d0a0db1393d{fill:#707070;}.aa011227-0d42-493e-8aaa-e29b0732935d{opacity:0;}.a2e246e9-7273-43f9-bdd0-281f5a2158ab{isolation:isolate;}</style></defs><g id="f538c309-802c-4692-aa3a-7be1ca322f41" data-name="background"><rect class="aa011227-0d42-493e-8aaa-e29b0732935d" width="20" height="20"/></g><g id="a911e0d7-1e95-4784-938b-a346ec388c9c" data-name="Layer 11"><g id="ba3e8f1f-ba61-4066-b2a0-c4eaec6f4d53" data-name=" " class="a2e246e9-7273-43f9-bdd0-281f5a2158ab"><g class="a2e246e9-7273-43f9-bdd0-281f5a2158ab"><path class="f8daf3b9-63de-4222-97ca-7d0a0db1393d" d="M16.8,13.3a1.3,1.3,0,0,1,.3.7,1,1,0,0,1-1,1H3.4l-.3-.4a.8.8,0,0,1-.2-.5,1.3,1.3,0,0,1,.3-.7c.1,0,.1,0,.1-.1l.8-.8.6-1.5A8.8,8.8,0,0,0,5,8.5,4.6,4.6,0,0,1,6.1,5.3,4.8,4.8,0,0,1,9,3.6V2.9a1.1,1.1,0,0,1,.3-.7,1,1,0,0,1,1.4,0,1.1,1.1,0,0,1,.3.7v.7a4,4,0,0,1,2.1.9,5.5,5.5,0,0,1,1.4,1.7,4.6,4.6,0,0,1,.6,2.3,8.8,8.8,0,0,0,.3,2.4,5.7,5.7,0,0,0,.6,1.5l.7.8A.1.1,0,0,0,16.8,13.3Zm-11.7.2h9.8a8.2,8.2,0,0,1-1.4-5h0A3.4,3.4,0,0,0,10,5,3.4,3.4,0,0,0,6.5,8.5h0A8.2,8.2,0,0,1,5.1,13.5Zm6.3,4a1.8,1.8,0,0,1-1.4.6,2.1,2.1,0,0,1-2-2h4A2,2,0,0,1,11.4,17.5Z" transform="translate(0 0)"/></g></g></g></svg>