<svg xmlns="http://www.w3.org/2000/svg" viewBox="0 0 20 20"><defs><style>.ee4ddd0f-95b0-42a7-b5c4-a444a2659f39,.fda7580b-08df-4cbc-beab-e7f9d7bb93a5{fill:#707070;}.fda7580b-08df-4cbc-beab-e7f9d7bb93a5{opacity:0;}</style></defs><g id="fafbdda7-a6e7-45f5-8092-1711ea2a7bcb" data-name="background"><rect class="fda7580b-08df-4cbc-beab-e7f9d7bb93a5" width="20" height="20"/></g><g id="eb52d49e-65e7-4ceb-a46d-8c7ee367ef20" data-name="Layer 12"><path id="b61584a5-4ce9-4f61-874b-c3de8f7e07fc" data-name="Search" class="ee4ddd0f-95b0-42a7-b5c4-a444a2659f39" d="M19,18.1l-4.4-4.4a7.8,7.8,0,0,0-.9-10.9,7.7,7.7,0,0,0-10,11.8,7.8,7.8,0,0,0,10,0L18.1,19Zm-10.3-3A6.4,6.4,0,0,1,2.3,8.7,6.4,6.4,0,0,1,8.7,2.3a6.3,6.3,0,0,1,6.4,6.4h0A6.4,6.4,0,0,1,8.7,15.1Z" transform="translate(0 0)"/></g></svg>